<?xml version="1.0" standalone="no"?>
<!DOCTYPE svg PUBLIC "-//W3C//DTD SVG 1.1//EN" "http://www.w3.org/Graphics/SVG/1.1/DTD/svg11.dtd" >
<svg>
<metadata>
Created by FontForge 20110222 at Mon Mar  7 13:16:15 2011
 By www-data
Copyright (c) 2008 by Dongwoo Kim. All rights reserved.
</metadata>
<defs>
<font id="BigBoned" horiz-adv-x="800" >
  <font-face 
    font-family="Big Boned"
    font-weight="400"
    font-stretch="normal"
    units-per-em="1000"
    panose-1="2 15 9 0 0 0 0 0 0 0"
    ascent="750"
    descent="-250"
    x-height="669"
    cap-height="697"
    bbox="16.7731 -52 832 761"
    underline-thickness="50"
    underline-position="-50"
    unicode-range="U+0020-007A"
  />
    <missing-glyph />
    <glyph glyph-name="space" unicode=" " horiz-adv-x="250" 
 />
    <glyph glyph-name="E" unicode="E" horiz-adv-x="680" 
d="M486 697c80 0 144 -65 144 -145c0 -39 -16 -75 -42 -101c26 -27 42 -63 42 -102c0 -40 -16 -77 -42 -103c26 -26 42 -62 42 -102c0 -80 -64 -144 -144 -144h-287c-38 0 -75 15 -102 42s-43 64 -43 102v205v203c0 38 16 75 43 102s64 43 102 43h287z" />
    <glyph glyph-name="F" unicode="F" horiz-adv-x="674" 
d="M200 0c-80 0 -145 64 -145 144v205v0v203c0 38 16 75 43 102s64 43 102 43h287c80 0 144 -65 144 -145c0 -66 -45 -122 -105 -138c9 -20 15 -42 15 -65c0 -80 -64 -144 -144 -144h-53v-61c0 -80 -65 -144 -144 -144z" />
    <glyph glyph-name="G" unicode="G" horiz-adv-x="743" 
d="M620 359c22 -13 40 -31 53 -52c13 -22 21 -47 21 -75v-88c0 -38 -15 -75 -42 -102c-14 -13 -30 -24 -47 -31s-36 -11 -55 -11h-159h-5c-85 2 -172 38 -234 102c0 0 -1 0 -1 1c-4 3 -12 11 -19 20c-4 5 -11 13 -19 24c-43 59 -63 131 -63 199v14v7c2 66 25 131 62 182l1 2
c9 12 22 29 41 46c15 16 32 30 51 42c18 13 38 23 59 32c42 17 88 26 133 26h2c43 0 86 -9 124 -23l7 -3c39 -16 80 -42 114 -76c1 -1 2 -3 3 -4c31 -28 47 -67 47 -106c0 -30 -9 -61 -29 -87c-12 -17 -28 -30 -45 -39z" />
    <glyph glyph-name="H" unicode="H" horiz-adv-x="684" 
d="M54 552c0 80 65 145 144 145c75 0 136 -57 144 -129c8 72 69 129 143 129c80 0 144 -65 144 -145v-203v-205c0 -80 -64 -144 -144 -144c-74 0 -136 56 -143 128c-8 -72 -69 -128 -144 -128c-79 0 -144 64 -144 144v205v203z" />
    <glyph glyph-name="I" unicode="I" horiz-adv-x="397" 
d="M343 552v-408c0 -80 -64 -144 -144 -144c-40 0 -76 16 -102 42s-42 62 -42 102v408c0 80 65 145 144 145c40 0 76 -17 102 -43s42 -62 42 -102z" />
    <glyph glyph-name="J" unicode="J" horiz-adv-x="592" 
d="M294 0c-21 0 -43 3 -64 8c-22 6 -43 15 -63 27c-25 16 -37 30 -38 29l-10 11c-36 37 -65 91 -70 152v11c0 75 58 138 134 144h11c21 0 41 -5 59 -13v183c0 80 64 145 144 145c40 0 76 -17 102 -43s42 -62 42 -102v-312c0 -35 -8 -63 -14 -79c-14 -38 -34 -64 -53 -85
l-6 -6c-21 -21 -48 -39 -78 -52c-30 -12 -63 -18 -93 -18h-2h-1z" />
    <glyph glyph-name="K" unicode="K" horiz-adv-x="685" 
d="M199 0c-79 0 -144 64 -144 144v129v279c0 80 65 145 144 145c62 0 114 -39 135 -92l53 51c57 55 148 54 204 -3c55 -57 54 -149 -4 -204l-103 -101l104 -101c57 -55 58 -146 2 -204c-28 -29 -66 -43 -103 -43c-36 0 -73 14 -101 41l-52 51c-21 -54 -73 -92 -135 -92z" />
    <glyph glyph-name="L" unicode="L" horiz-adv-x="675" 
d="M485 288c79 0 144 -64 144 -144c0 -40 -16 -76 -42 -102s-62 -42 -102 -42h-287c-38 0 -75 15 -102 42c-13 14 -24 30 -31 47s-11 36 -11 55v408c0 80 64 145 144 145c40 0 76 -17 102 -43s42 -62 42 -102v-264h143z" />
    <glyph glyph-name="M" unicode="M" 
d="M400 0c-20 0 -39 4 -57 11c-17 8 -33 19 -47 32c-13 -13 -28 -24 -46 -31c-17 -8 -37 -12 -57 -12c-40 0 -76 16 -102 42s-42 62 -42 102v408c0 67 46 125 111 141c11 2 22 3 33 3c53 0 104 -29 129 -79l78 -153l77 153c30 60 98 91 162 76c33 -8 60 -27 80 -51
c20 -25 31 -56 31 -90v-408c0 -40 -16 -76 -42 -102s-62 -42 -102 -42c-20 0 -40 4 -57 12c-18 7 -33 18 -46 31c-27 -27 -64 -43 -103 -43z" />
    <glyph glyph-name="N" unicode="N" horiz-adv-x="685" 
d="M316 635l30 -43c17 61 73 105 138 105c40 0 76 -17 102 -43s43 -62 43 -102v-408c0 -63 -41 -118 -101 -137c-14 -5 -29 -7 -43 -7c-47 0 -91 22 -119 61l-30 43c-17 -60 -73 -104 -138 -104c-40 0 -76 16 -102 42s-42 62 -42 102v408c0 63 40 119 100 138
c15 4 29 6 44 6c46 0 90 -22 118 -61z" />
    <glyph glyph-name="O" unicode="O" 
d="M723 481c17 -42 25 -88 25 -133v-1c0 -45 -8 -91 -26 -133c-8 -21 -19 -41 -32 -60s-28 -37 -44 -53c-15 -15 -32 -29 -50 -42c-18 -12 -37 -23 -58 -32c-20 -9 -41 -15 -63 -20c-21 -5 -43 -7 -65 -8h-4h-11h-5c-43 1 -87 10 -128 28c-20 9 -40 20 -58 32
c-18 13 -35 27 -51 42c-16 16 -30 34 -43 53s-24 39 -33 60c-17 42 -26 88 -26 133v1c0 45 9 91 26 133c9 21 20 41 32 60c13 19 27 36 43 53l3 2c28 28 62 53 101 70c36 16 75 26 115 29c12 1 21 1 26 1h3h5c4 0 12 0 24 -1c40 -3 79 -13 115 -29c39 -18 73 -42 101 -70
l3 -2c31 -33 57 -71 75 -113z" />
    <glyph glyph-name="P" unicode="P" horiz-adv-x="665" 
d="M614 451c1 -31 -5 -64 -18 -95c-13 -30 -31 -56 -52 -77c-22 -22 -48 -41 -77 -54s-60 -19 -90 -20h-5h-30v-61c0 -80 -64 -144 -144 -144s-144 64 -144 144v204v1v203c0 38 15 75 42 102s64 43 102 43h178l10 -1c57 -4 115 -29 156 -71c23 -23 42 -50 54 -81
c13 -30 19 -63 18 -93z" />
    <glyph glyph-name="Q" unicode="Q" 
d="M727 224c56 -57 55 -148 -1 -204c-28 -28 -65 -42 -102 -42s-74 14 -102 43c-38 -14 -78 -21 -118 -21v0h-4c-43 0 -88 7 -129 24c-42 16 -80 41 -112 72l-2 2l-7 6l-2 3c-31 32 -56 70 -72 111c-17 41 -25 86 -25 130c0 45 8 91 26 133c18 43 44 80 75 112l1 1
c32 32 70 58 112 76s88 27 134 27c41 0 83 -7 123 -22c39 -14 75 -36 105 -63c9 -8 14 -13 18 -16v-1l6 -6c4 -4 10 -9 16 -18c26 -29 46 -64 60 -101c14 -39 21 -81 21 -122c0 -42 -7 -84 -22 -123z" />
    <glyph glyph-name="R" unicode="R" horiz-adv-x="669" 
d="M616 451c0 -31 -6 -64 -19 -95c-11 -27 -28 -52 -47 -72l39 -57c46 -65 31 -155 -34 -201c-26 -18 -55 -26 -83 -26c-46 0 -90 21 -118 61l-21 29c-21 -53 -73 -90 -134 -90c-79 0 -144 64 -144 144v205v203c0 38 16 75 42 102c27 27 64 43 102 43h178l11 -1
c56 -4 114 -29 156 -71c22 -23 41 -50 53 -81c13 -30 19 -63 19 -93z" />
    <glyph glyph-name="S" unicode="S" horiz-adv-x="670" 
d="M575 377c27 -35 46 -84 45 -134c0 -23 -3 -45 -10 -66c-6 -20 -14 -38 -24 -55c-13 -24 -31 -45 -51 -62c-21 -17 -43 -29 -65 -37c-22 -9 -44 -14 -65 -18c-22 -3 -44 -5 -66 -5h-1h-6c-22 0 -43 1 -63 4c-21 3 -42 7 -63 13c-41 13 -81 35 -115 66
c-57 55 -60 146 -5 204c9 10 19 19 31 25c-7 8 -14 16 -20 25c-24 32 -36 75 -36 113v2c0 25 4 46 9 65c6 20 13 37 21 53c12 23 28 44 46 61c19 18 39 31 60 40c21 10 41 16 61 21c20 4 40 6 59 7c9 1 18 1 28 1h1c70 0 140 -19 198 -57c42 -28 66 -74 66 -121
c0 -27 -8 -55 -24 -79c-10 -15 -22 -27 -35 -37c9 -9 17 -18 24 -29z" />
    <glyph glyph-name="T" unicode="T" horiz-adv-x="680" 
d="M480 697c80 0 145 -65 145 -145c0 -79 -65 -144 -145 -144v-264c0 -80 -64 -144 -144 -144s-144 64 -144 144v264c-79 1 -143 65 -143 144c0 80 64 145 144 145h143h144z" />
    <glyph glyph-name="U" unicode="U" horiz-adv-x="689" 
d="M358 0h-14h-1h-2c-4 0 -13 0 -25 2c-29 2 -60 9 -90 23c-36 15 -64 38 -86 59c-26 26 -47 57 -61 90c-15 34 -23 70 -24 105v7v266c0 80 64 145 144 145c38 0 72 -15 98 -39s43 -57 45 -94c3 37 20 70 46 94s60 39 98 39c40 0 76 -17 102 -43s42 -62 42 -102v-266v-4
c0 -35 -7 -72 -22 -106c-14 -35 -36 -66 -62 -92c-25 -25 -54 -45 -85 -59c-29 -13 -59 -20 -87 -23c-7 -1 -12 -1 -16 -2z" />
    <glyph glyph-name="V" unicode="V" horiz-adv-x="663" 
d="M618 552c0 -15 -3 -32 -8 -47l-143 -409c-21 -58 -75 -96 -136 -96h-1c-62 0 -116 38 -136 96l-144 409c-26 75 13 157 89 183c15 6 31 9 47 9c60 0 116 -38 136 -97l8 -22l8 22c26 75 108 115 184 88c59 -20 96 -76 96 -136z" />
    <glyph glyph-name="W" unicode="W" horiz-adv-x="851" 
d="M832 552c0 -14 -2 -29 -7 -44l-131 -408c-19 -60 -75 -100 -137 -100h-1c-57 0 -108 33 -131 84c-12 -25 -31 -46 -53 -61c-23 -15 -50 -23 -79 -23v0c-63 0 -118 40 -138 100l-131 408c-25 76 17 157 93 182c14 4 29 7 44 7c56 0 108 -33 132 -86c11 26 30 47 52 62
c23 15 50 23 79 24c29 0 56 -9 79 -24s42 -37 53 -63c23 54 76 87 132 87c15 0 30 -3 44 -7c61 -20 100 -77 100 -138z" />
    <glyph glyph-name="X" unicode="X" horiz-adv-x="665" 
d="M592 226c46 -65 30 -155 -35 -201c-26 -18 -55 -26 -83 -26c-45 0 -90 21 -118 61l-26 37l-25 -36c-28 -40 -73 -61 -118 -61c-29 0 -58 8 -83 26c-65 46 -81 136 -35 201l85 121l-85 120c-46 66 -30 155 35 201s155 30 201 -35l26 -36l25 36c46 65 136 81 201 35
s81 -135 35 -201l-85 -120z" />
    <glyph glyph-name="Y" unicode="Y" horiz-adv-x="663" 
d="M556 670c65 -46 81 -135 35 -201l-117 -166v-159c0 -80 -65 -144 -144 -144c-80 0 -145 64 -145 144v159l-117 166c-45 66 -30 155 35 201s155 30 201 -35l26 -36l25 36c46 65 136 81 201 35z" />
    <glyph glyph-name="Z" unicode="Z" horiz-adv-x="669" 
d="M603 618c11 -21 16 -44 16 -67c0 -29 -9 -58 -26 -83l-127 -180h9c40 0 76 -16 102 -42s42 -62 42 -102s-16 -76 -42 -102s-62 -42 -102 -42h-288c-53 0 -103 30 -128 78c-11 21 -16 43 -16 66c0 29 9 58 27 83l127 180h-10c-79 0 -144 65 -144 144c0 40 16 76 42 102
s63 43 102 43h288c54 0 103 -31 128 -78z" />
    <glyph glyph-name="zero" unicode="0" horiz-adv-x="681" 
d="M609 497c17 -48 23 -98 23 -149c0 -50 -6 -99 -21 -146c-16 -47 -43 -93 -81 -128l-1 -1c-25 -23 -55 -42 -88 -54c-33 -13 -68 -19 -101 -19h-4c-66 0 -137 27 -186 73l-1 1c-38 35 -65 81 -81 128c-15 48 -21 96 -21 146c0 51 6 101 23 149c16 47 44 92 83 127v1
c24 22 53 41 85 54s67 20 102 20c34 0 69 -7 102 -20c32 -13 60 -32 84 -54c39 -35 67 -81 83 -128z" />
    <glyph glyph-name="one" unicode="1" horiz-adv-x="481" 
d="M148 145v165c-23 6 -44 19 -62 37v0c-57 56 -57 148 0 205v0l105 104c41 42 104 54 158 32v0c54 -23 89 -76 89 -134v0v-409v0c0 -80 -65 -145 -145 -145v0c-80 0 -145 65 -145 145v0z" />
    <glyph glyph-name="two" unicode="2" horiz-adv-x="580" 
d="M184 0c-55 0 -105 32 -130 81v0c-24 50 -18 109 16 153v0l63 82c-55 21 -94 74 -94 136v0c0 31 6 64 19 95v0c12 30 32 58 54 80v0c21 22 49 41 80 53v0c30 13 63 19 94 19v0c31 0 65 -6 95 -19v0c31 -12 58 -31 80 -53v0c22 -22 41 -50 54 -80v0c12 -30 18 -63 18 -93v0
c1 -1 1 -2 1 -4v0c-1 -51 -17 -88 -34 -120v0v-1v-1v0s-1 0 -1 -1v0v0c-10 -18 -21 -36 -34 -55v0c44 -24 75 -72 75 -127v0c0 -80 -65 -145 -145 -145v0h-211v0z" />
    <glyph glyph-name="three" unicode="3" horiz-adv-x="611" 
d="M206 19c-32 13 -61 34 -84 57v0l-1 1c-20 21 -38 46 -51 74v0c-13 28 -21 58 -23 87v0c-5 58 25 111 73 138v0c-34 32 -52 81 -43 131v0c8 46 32 90 63 121v0l4 5c20 19 46 36 74 48v0c29 11 60 17 89 17v0c29 0 60 -5 88 -17v0c29 -12 54 -29 75 -48v0l5 -6
c20 -20 37 -45 48 -74v0c12 -28 17 -59 17 -88v0c0 -23 -3 -47 -10 -70v0c6 -11 12 -23 17 -35v0c14 -32 20 -67 20 -100v0c0 -33 -6 -68 -20 -100v0c-13 -32 -33 -61 -57 -84v0v0c-23 -24 -52 -44 -84 -57v0c-32 -13 -67 -19 -100 -19v0v0v0c-33 0 -68 6 -100 19v0z" />
    <glyph glyph-name="four" unicode="4" horiz-adv-x="608" 
d="M565 282c0 -44 -20 -82 -50 -109v-28c0 -80 -65 -145 -145 -145c-77 0 -140 61 -145 137h-31c-53 0 -102 29 -128 76c-25 46 -23 103 6 148l176 272c35 54 101 78 163 60s104 -75 104 -139v-163c30 -27 50 -65 50 -109z" />
    <glyph glyph-name="five" unicode="5" horiz-adv-x="649" 
d="M328 0c-34 0 -68 5 -102 16v0c-33 12 -65 30 -92 53v0l-1 1c-25 22 -49 51 -64 85v0c-16 33 -24 71 -24 106v0c0 31 10 60 27 83v0c-11 26 -14 56 -8 85v0l33 155c14 67 74 115 142 115v0h183c80 0 145 -65 145 -145v0c0 -30 -9 -57 -24 -80v0c8 -10 15 -21 22 -32v0
c28 -51 37 -105 37 -158v0c1 -58 -15 -122 -53 -174v0c-24 -35 -59 -65 -99 -84v0c-40 -19 -82 -26 -122 -26v0v0v0z" />
    <glyph glyph-name="six" unicode="6" horiz-adv-x="643" 
d="M168 635l1 1v0c-1 0 -1 0 -1 -1zM579 377c13 -35 18 -70 18 -104c0 -58 -18 -120 -54 -168c-24 -34 -59 -63 -98 -80c-39 -18 -79 -25 -117 -25v0c-40 0 -81 7 -121 25c-40 17 -76 46 -101 81l-1 1c-41 56 -57 123 -57 187v2v0c0 47 3 90 10 131c7 40 18 79 38 117
c17 33 41 65 73 92c46 39 106 64 165 64c48 0 75 -1 124 -31c61 -41 81 -121 49 -186c4 -3 7 -7 11 -10c27 -27 49 -61 61 -96z" />
    <glyph glyph-name="seven" unicode="7" horiz-adv-x="602" 
d="M204 9c-76 28 -114 112 -86 187v0l80 213h-2v0c-80 0 -145 65 -145 145v0c0 80 65 145 145 145v0h210c48 0 92 -23 119 -62v0c27 -39 34 -89 17 -134v0l-152 -408c-22 -59 -77 -95 -136 -95v0c-17 0 -34 3 -50 9v0z" />
    <glyph glyph-name="eight" unicode="8" horiz-adv-x="603" 
d="M539 355c13 -31 19 -66 19 -98s-6 -66 -19 -98s-32 -60 -55 -83l-1 -1c-23 -23 -51 -43 -83 -56s-66 -19 -98 -19h-1c-32 0 -66 6 -98 19s-61 33 -84 56l-1 1c-22 23 -42 51 -55 83s-19 66 -19 98s6 67 19 98c4 10 9 19 14 28c-9 26 -14 53 -13 78c-1 30 5 62 17 91
c13 30 31 56 52 77s47 39 77 51c29 12 60 18 90 18s62 -6 91 -18s55 -30 75 -50l2 -1c21 -21 39 -47 51 -77c13 -29 18 -61 18 -91c0 -25 -4 -51 -12 -77c5 -9 10 -19 14 -29z" />
    <glyph glyph-name="nine" unicode="9" horiz-adv-x="633" 
d="M590 404v-1c0 -47 -3 -90 -9 -130c-8 -41 -18 -80 -38 -117c-18 -33 -41 -65 -73 -93c-46 -40 -111 -63 -175 -63c-40 0 -81 9 -115 31c-61 41 -81 121 -48 185c-33 28 -58 66 -73 106c-13 35 -17 71 -17 105c-1 57 17 119 53 168c25 33 60 62 98 80c39 18 80 24 118 24
c39 0 81 -7 121 -24c39 -18 75 -47 101 -82v0c41 -57 57 -124 57 -188v-1z" />
    <glyph glyph-name="dollar" unicode="$" horiz-adv-x="645" 
d="M565 379c25 -34 43 -83 43 -132c0 -47 -15 -89 -34 -122l-1 -2c-27 -47 -73 -80 -116 -96c-3 -1 -7 -2 -10 -4c-24 -44 -72 -75 -127 -75c-53 0 -100 29 -125 72l-1 1c-41 12 -83 34 -117 67v0c-57 56 -59 147 -3 205c9 9 19 17 29 23c-7 8 -15 18 -22 28l-2 2
c-20 32 -32 74 -32 111c0 46 14 85 31 117c22 47 63 83 104 102c3 1 6 2 9 4c23 48 72 81 129 81c54 0 101 -29 126 -73c31 -10 60 -23 85 -40c67 -43 87 -133 44 -200c-10 -15 -23 -28 -36 -38c8 -8 16 -17 23 -27z" />
    <glyph glyph-name="ampersand" unicode="&#x26;" horiz-adv-x="702" 
d="M593 269c66 -41 88 -128 49 -196c-27 -46 -75 -72 -125 -72c-25 0 -50 7 -73 20c-10 6 -20 13 -30 20c-26 -16 -54 -29 -85 -36l-10 -2c-13 -2 -27 -3 -42 -3h-3c-44 0 -95 15 -134 44c-53 36 -87 94 -95 154c-3 13 -4 27 -4 40c0 50 17 100 43 141c14 23 32 43 52 61
c-1 4 -1 8 -1 12c0 35 7 72 21 104l3 6c16 34 42 71 81 98c38 27 87 40 130 39c28 0 61 -4 94 -21c34 -16 66 -48 82 -81c12 -23 18 -46 20 -66l1 -1c1 -9 1 -17 1 -27c0 -13 -1 -25 -3 -37c48 -40 66 -109 40 -169l-11 -27v1c0 -1 -1 -2 -1 -2z" />
    <glyph glyph-name="quotesingle" unicode="'" horiz-adv-x="400" 
d="M55 507v98c0 80 64 145 144 145v0c80 0 145 -65 145 -145v0v-98c0 -79 -65 -144 -145 -144v0c-80 0 -144 65 -144 144v0z" />
    <glyph glyph-name="parenleft" unicode="(" horiz-adv-x="400" 
d="M141 37h-1v0c-2 2 -7 6 -13 12v0c-39 38 -66 86 -83 135v0c-17 53 -24 108 -24 166v0c0 58 7 114 26 167v0c18 54 50 104 94 143v0v0c60 53 151 48 204 -12v0c53 -60 47 -151 -12 -204v0c-4 -4 -8 -8 -14 -22v0c-5 -14 -9 -38 -9 -72v0c0 -35 4 -59 9 -74v0
c5 -14 9 -18 11 -19v0c2 -3 5 -5 7 -8v0c1 0 2 -1 3 -2v0c56 -57 56 -148 0 -204v0c-28 -29 -65 -43 -102 -43v0c-35 0 -69 12 -96 37v0z" />
    <glyph glyph-name="parenright" unicode=")" horiz-adv-x="400" 
d="M62 43c-57 56 -57 147 0 204v0c1 1 1 2 2 2v0l8 8v0c1 1 5 5 10 19v0c5 15 10 39 10 74v0c0 34 -5 58 -10 72v0c-5 14 -9 18 -13 22v0c-60 53 -65 144 -12 204v0c53 60 144 65 204 12v0c44 -39 75 -89 94 -143v0c18 -53 26 -109 26 -167v0c0 -58 -7 -113 -25 -166v0
c-16 -49 -43 -97 -83 -135v0l-3 -3v0c-5 -5 -8 -7 -10 -9v0c-27 -25 -62 -37 -96 -37v0c-37 0 -74 14 -102 43v0z" />
    <glyph glyph-name="asterisk" unicode="*" horiz-adv-x="665" 
d="M608 589c30 -52 24 -115 -11 -161c35 -45 41 -108 11 -160c-27 -47 -75 -72 -125 -72c-7 0 -13 0 -19 1c-22 -53 -74 -90 -134 -90s-112 37 -134 90c-6 -1 -12 -1 -19 -1c-50 0 -98 25 -125 72c-30 52 -24 115 11 160c-35 46 -41 109 -11 161s88 79 144 71
c22 53 74 90 134 90s112 -37 134 -90c56 8 114 -19 144 -71z" />
    <glyph glyph-name="plus" unicode="+" 
d="M602 494c80 0 145 -64 145 -144s-65 -145 -145 -145h-59v-60c0 -80 -65 -145 -145 -145s-144 65 -144 145v60h-60c-80 0 -144 65 -144 145s64 144 144 144h60v60c0 80 64 145 144 145s145 -65 145 -145v-60h59z" />
    <glyph glyph-name="comma" unicode="," horiz-adv-x="400" 
d="M149 -46c-76 23 -120 103 -97 180v0l16 54c23 76 103 120 180 97v0c76 -22 120 -103 97 -179v0l-16 -54c-19 -63 -76 -104 -138 -104v0c-14 0 -28 2 -42 6z" />
    <glyph glyph-name="period" unicode="." horiz-adv-x="400" 
d="M345 145c0 -80 -65 -145 -145 -145c-79 0 -144 65 -144 145s65 144 144 144c80 0 145 -64 145 -144z" />
    <glyph glyph-name="slash" unicode="/" 
d="M121 16c-72 36 -100 123 -64 194v0l208 409c36 72 123 100 194 64v0c71 -36 100 -123 64 -194v0l-208 -409c-26 -51 -76 -80 -129 -80v0c-22 0 -44 5 -65 16v0z" />
    <glyph glyph-name="hyphen" unicode="-" horiz-adv-x="702" 
d="M187 210c-80 0 -144 65 -144 145v0c0 80 64 144 144 144v0h324c80 0 145 -64 145 -144v0c0 -80 -65 -145 -145 -145v0h-324v0z" />
    <glyph glyph-name="colon" unicode=":" horiz-adv-x="400" 
d="M345 457c0 -80 -65 -145 -145 -145c-79 0 -144 65 -144 145s65 144 144 144c80 0 145 -64 145 -144zM345 145c0 -80 -65 -145 -145 -145c-79 0 -144 65 -144 145s65 144 144 144c80 0 145 -64 145 -144z" />
    <glyph glyph-name="semicolon" unicode=";" horiz-adv-x="401" 
d="M133 -46c-76 23 -120 103 -97 180v0l16 54c23 76 103 120 180 97v0c76 -22 120 -103 97 -179v0l-16 -54c-19 -63 -76 -104 -138 -104v0c-14 0 -28 2 -42 6v0zM346 457c0 -80 -64 -145 -144 -145s-145 65 -145 145s65 144 145 144s144 -64 144 -144z" />
    <glyph glyph-name="less" unicode="&#x3c;" horiz-adv-x="586" 
d="M320 117l-215 141c-41 26 -65 71 -65 120v0c0 49 24 94 65 121v0l215 142c66 44 156 25 200 -41v0c44 -67 25 -157 -41 -200v0l-32 -21l31 -21c67 -43 86 -133 42 -200v0c-28 -42 -74 -65 -121 -65v0c-27 0 -55 8 -79 24z" />
    <glyph glyph-name="greater" unicode="&#x3e;" horiz-adv-x="602" 
d="M74 158c-44 67 -26 157 41 200v0l31 21l-31 21c-67 43 -85 133 -41 200v0c44 66 133 85 200 41v0l215 -142c41 -27 65 -72 65 -121v0c0 -49 -25 -94 -65 -121v0l-215 -140c-25 -16 -52 -24 -79 -24v0c-48 0 -94 23 -121 65z" />
    <glyph glyph-name="equal" unicode="=" horiz-adv-x="601" 
d="M561 430c0 -20 -4 -39 -11 -57c7 -17 11 -36 11 -56c0 -80 -65 -145 -144 -145h-234c-80 0 -145 65 -145 145c0 20 4 39 12 56c-8 18 -12 37 -12 57c0 80 65 144 145 144h234c79 0 144 -64 144 -144z" />
    <glyph glyph-name="question" unicode="?" 
d="M675 455v0v-2c0 -55 -21 -113 -55 -154c-33 -43 -75 -71 -119 -92c-2 -1 -3 -1 -4 -2c8 -18 13 -39 13 -60c0 -80 -65 -145 -145 -145c-79 0 -144 65 -144 145c0 19 4 37 11 54c-6 11 -11 23 -14 36c-3 11 -5 25 -5 41c-1 33 11 70 29 96c1 1 2 3 3 4
c-39 7 -75 30 -97 66c-43 67 -22 157 45 199c60 38 131 56 202 56h21c60 -2 124 -19 177 -65c24 -20 45 -47 60 -78s22 -66 22 -99z" />
    <glyph glyph-name="numbersign" unicode="#" horiz-adv-x="702" 
d="M655 407c0 -20 -4 -39 -12 -57c8 -17 12 -36 12 -56c0 -66 -44 -122 -105 -139v-10c0 -80 -65 -145 -144 -145c-20 0 -40 5 -57 12c-17 -7 -36 -12 -56 -12c-80 0 -145 65 -145 145v10c-61 17 -105 73 -105 139c0 20 4 39 11 56c-7 18 -11 37 -11 57c0 66 44 122 105 139
v8c0 80 65 145 145 145c20 0 39 -5 56 -12c17 7 37 12 57 12c79 0 144 -65 144 -145v-8c61 -18 105 -73 105 -139z" />
    <glyph glyph-name="exclam" unicode="!" horiz-adv-x="400" 
d="M345 557v-228c0 -35 -13 -67 -34 -92c21 -25 33 -58 33 -93c0 -80 -64 -144 -144 -144s-144 64 -144 144c0 35 13 68 34 93c-21 25 -34 57 -34 92v228c0 79 65 144 144 144c80 0 145 -65 145 -144z" />
    <glyph glyph-name="quotedbl" unicode="&#x22;" horiz-adv-x="487" 
d="M304 726c80 0 145 -65 145 -145v-98c0 -80 -65 -144 -145 -144c-22 0 -42 5 -61 13c-19 -8 -39 -13 -61 -13c-80 0 -145 64 -145 144v98c0 80 65 145 145 145c22 0 42 -5 61 -14c19 9 39 14 61 14z" />
    <glyph glyph-name="at" unicode="@" 
d="M415 0c-46 0 -92 8 -134 26v0c-43 18 -82 45 -114 77v0c-32 32 -58 70 -76 113v0c-18 42 -26 88 -26 133v0c0 45 8 92 26 134v0c17 43 44 82 76 114v0l1 1c32 32 71 58 113 76v0c42 17 88 26 134 25v0c30 0 61 -3 92 -13v0c31 -10 61 -25 86 -44v0
c47 -34 85 -88 100 -145v0c7 -23 11 -48 11 -74v0c1 -36 -8 -72 -22 -103v0c1 -1 3 -2 4 -3v0c62 -52 70 -143 19 -204v0c-18 -22 -35 -34 -49 -44v0c-14 -9 -26 -16 -37 -22v0l-4 -1c-61 -32 -130 -46 -199 -46v0h-1v0z" />
    <glyph glyph-name="A" unicode="A" 
d="M746 125v0c-3 -20 -10 -39 -20 -55c-11 -18 -25 -34 -44 -46c-14 -10 -31 -17 -48 -21c-11 -2 -21 -3 -31 -3h-3h-404c-50 0 -96 26 -122 68c-15 23 -22 50 -22 76c0 22 5 44 15 64l203 408c24 49 74 80 129 81c27 0 53 -8 76 -22c22 -14 41 -34 53 -58l202 -406
c6 -11 10 -23 13 -35c3 -10 4 -21 4 -32c0 -6 0 -12 -1 -18v-1z" />
    <glyph glyph-name="B" unicode="B" horiz-adv-x="690" 
d="M638 246c0 -31 -6 -63 -18 -93c-13 -31 -32 -58 -54 -80l-3 -3c-35 -34 -88 -63 -146 -69l-16 -1h-205c-38 0 -75 15 -102 42c-13 14 -24 30 -31 47s-11 36 -11 55v408c0 38 16 75 42 102c14 14 30 24 47 31c18 8 36 12 55 12h177c3 0 7 -1 11 -1c29 -1 58 -9 85 -21
c27 -13 52 -30 72 -50c22 -23 41 -50 53 -81c13 -30 19 -62 19 -93v0v-1c0 -24 -4 -49 -12 -74c7 -11 13 -22 18 -34c13 -31 19 -64 19 -94v-1v-1z" />
    <glyph glyph-name="C" unicode="C" horiz-adv-x="726" 
d="M635 344c37 -29 56 -71 56 -114c0 -31 -10 -62 -31 -89c-9 -12 -21 -26 -35 -39c-31 -31 -67 -55 -107 -73c-39 -17 -81 -26 -123 -28h-7h-13h-5c-43 1 -87 10 -127 28c-21 9 -40 20 -58 32c-19 13 -36 27 -51 42c-16 16 -31 34 -44 53s-24 39 -32 60
c-18 42 -26 88 -26 133v1c0 45 8 91 25 133c9 21 20 41 33 60c12 19 27 36 42 53l2 1c57 58 137 95 218 100c15 2 24 1 28 1h1c5 0 15 0 28 -1c40 -3 80 -13 116 -29c37 -17 71 -41 99 -69c18 -17 29 -32 36 -41c21 -26 31 -57 31 -88c0 -43 -19 -86 -56 -114
c-3 -2 -6 -4 -8 -6c2 -2 5 -4 8 -6z" />
    <glyph glyph-name="D" unicode="D" horiz-adv-x="737" 
d="M660 482c18 -42 26 -88 26 -133v-1c0 -45 -8 -91 -26 -133c-9 -22 -20 -42 -33 -61s-28 -37 -44 -53c-30 -29 -66 -54 -106 -72c-20 -9 -41 -16 -62 -21s-43 -7 -65 -8h-5h-147c-38 0 -75 15 -102 42c-13 14 -24 30 -31 47s-11 36 -11 55v408c0 38 15 75 42 102
c13 14 29 24 47 31c17 8 36 12 55 12h154c1 0 3 0 4 -1h5c42 -2 83 -12 121 -29c38 -18 73 -42 102 -71c16 -16 31 -34 44 -53s24 -40 32 -61z" />
    <glyph glyph-name="b" unicode="b" horiz-adv-x="690" 
d="M638 246c0 -31 -6 -63 -18 -93c-13 -31 -32 -58 -54 -80l-3 -3c-35 -34 -88 -63 -146 -69l-16 -1h-205c-38 0 -75 15 -102 42c-13 14 -24 30 -31 47s-11 36 -11 55v408c0 38 16 75 42 102c14 14 30 24 47 31c18 8 36 12 55 12h177c3 0 7 -1 11 -1c29 -1 58 -9 85 -21
c27 -13 52 -30 72 -50c22 -23 41 -50 53 -81c13 -30 19 -62 19 -93v0v-1c0 -24 -4 -49 -12 -74c7 -11 13 -22 18 -34c13 -31 19 -64 19 -94v-1v-1z" />
    <glyph glyph-name="c" unicode="c" horiz-adv-x="726" 
d="M635 344c37 -29 56 -71 56 -114c0 -31 -10 -62 -31 -89c-9 -12 -21 -26 -35 -39c-31 -31 -67 -55 -107 -73c-39 -17 -81 -26 -123 -28h-7h-13h-5c-43 1 -87 10 -127 28c-21 9 -40 20 -58 32c-19 13 -36 27 -51 42c-16 16 -31 34 -44 53s-24 39 -32 60
c-18 42 -26 88 -26 133v1c0 45 8 91 25 133c9 21 20 41 33 60c12 19 27 36 42 53l2 1c57 58 137 95 218 100c15 2 24 1 28 1h1c5 0 15 0 28 -1c40 -3 80 -13 116 -29c37 -17 71 -41 99 -69c18 -17 29 -32 36 -41c21 -26 31 -57 31 -88c0 -43 -19 -86 -56 -114
c-3 -2 -6 -4 -8 -6c2 -2 5 -4 8 -6z" />
    <glyph glyph-name="d" unicode="d" horiz-adv-x="737" 
d="M660 482c18 -42 26 -88 26 -133v-1c0 -45 -8 -91 -26 -133c-9 -22 -20 -42 -33 -61s-28 -37 -44 -53c-30 -29 -66 -54 -106 -72c-20 -9 -41 -16 -62 -21s-43 -7 -65 -8h-5h-147c-38 0 -75 15 -102 42c-13 14 -24 30 -31 47s-11 36 -11 55v408c0 38 15 75 42 102
c13 14 29 24 47 31c17 8 36 12 55 12h154c1 0 3 0 4 -1h5c42 -2 83 -12 121 -29c38 -18 73 -42 102 -71c16 -16 31 -34 44 -53s24 -40 32 -61z" />
    <glyph glyph-name="e" unicode="e" horiz-adv-x="680" 
d="M486 697c80 0 144 -65 144 -145c0 -39 -16 -75 -42 -101c26 -27 42 -63 42 -102c0 -40 -16 -77 -42 -103c26 -26 42 -62 42 -102c0 -80 -64 -144 -144 -144h-287c-38 0 -75 15 -102 42s-43 64 -43 102v205v203c0 38 16 75 43 102s64 43 102 43h287z" />
    <glyph glyph-name="f" unicode="f" horiz-adv-x="674" 
d="M200 0c-80 0 -145 64 -145 144v205v0v203c0 38 16 75 43 102s64 43 102 43h287c80 0 144 -65 144 -145c0 -66 -45 -122 -105 -138c9 -20 15 -42 15 -65c0 -80 -64 -144 -144 -144h-53v-61c0 -80 -65 -144 -144 -144z" />
    <glyph glyph-name="g" unicode="g" horiz-adv-x="743" 
d="M620 359c22 -13 40 -31 53 -52c13 -22 21 -47 21 -75v-88c0 -38 -15 -75 -42 -102c-14 -13 -30 -24 -47 -31s-36 -11 -55 -11h-159h-5c-85 2 -172 38 -234 102c0 0 -1 0 -1 1c-4 3 -12 11 -19 20c-4 5 -11 13 -19 24c-43 59 -63 131 -63 199v14v7c2 66 25 131 62 182l1 2
c9 12 22 29 41 46c15 16 32 30 51 42c18 13 38 23 59 32c42 17 88 26 133 26h2c43 0 86 -9 124 -23l7 -3c39 -16 80 -42 114 -76c1 -1 2 -3 3 -4c31 -28 47 -67 47 -106c0 -30 -9 -61 -29 -87c-12 -17 -28 -30 -45 -39z" />
    <glyph glyph-name="h" unicode="h" horiz-adv-x="684" 
d="M54 552c0 80 65 145 144 145c75 0 136 -57 144 -129c8 72 69 129 143 129c80 0 144 -65 144 -145v-203v-205c0 -80 -64 -144 -144 -144c-74 0 -136 56 -143 128c-8 -72 -69 -128 -144 -128c-79 0 -144 64 -144 144v205v203z" />
    <glyph glyph-name="i" unicode="i" horiz-adv-x="397" 
d="M343 552v-408c0 -80 -64 -144 -144 -144c-40 0 -76 16 -102 42s-42 62 -42 102v408c0 80 65 145 144 145c40 0 76 -17 102 -43s42 -62 42 -102z" />
    <glyph glyph-name="j" unicode="j" horiz-adv-x="592" 
d="M294 0c-21 0 -43 3 -64 8c-22 6 -43 15 -63 27c-25 16 -37 30 -38 29l-10 11c-36 37 -65 91 -70 152v11c0 75 58 138 134 144h11c21 0 41 -5 59 -13v183c0 80 64 145 144 145c40 0 76 -17 102 -43s42 -62 42 -102v-312c0 -35 -8 -63 -14 -79c-14 -38 -34 -64 -53 -85
l-6 -6c-21 -21 -48 -39 -78 -52c-30 -12 -63 -18 -93 -18h-2h-1z" />
    <glyph glyph-name="k" unicode="k" horiz-adv-x="685" 
d="M199 0c-79 0 -144 64 -144 144v129v279c0 80 65 145 144 145c62 0 114 -39 135 -92l53 51c57 55 148 54 204 -3c55 -57 54 -149 -4 -204l-103 -101l104 -101c57 -55 58 -146 2 -204c-28 -29 -66 -43 -103 -43c-36 0 -73 14 -101 41l-52 51c-21 -54 -73 -92 -135 -92z" />
    <glyph glyph-name="l" unicode="l" horiz-adv-x="675" 
d="M485 288c79 0 144 -64 144 -144c0 -40 -16 -76 -42 -102s-62 -42 -102 -42h-287c-38 0 -75 15 -102 42c-13 14 -24 30 -31 47s-11 36 -11 55v408c0 80 64 145 144 145c40 0 76 -17 102 -43s42 -62 42 -102v-264h143z" />
    <glyph glyph-name="m" unicode="m" 
d="M400 0c-20 0 -39 4 -57 11c-17 8 -33 19 -47 32c-13 -13 -28 -24 -46 -31c-17 -8 -37 -12 -57 -12c-40 0 -76 16 -102 42s-42 62 -42 102v408c0 67 46 125 111 141c11 2 22 3 33 3c53 0 104 -29 129 -79l78 -153l77 153c30 60 98 91 162 76c33 -8 60 -27 80 -51
c20 -25 31 -56 31 -90v-408c0 -40 -16 -76 -42 -102s-62 -42 -102 -42c-20 0 -40 4 -57 12c-18 7 -33 18 -46 31c-27 -27 -64 -43 -103 -43z" />
    <glyph glyph-name="n" unicode="n" horiz-adv-x="685" 
d="M316 635l30 -43c17 61 73 105 138 105c40 0 76 -17 102 -43s43 -62 43 -102v-408c0 -63 -41 -118 -101 -137c-14 -5 -29 -7 -43 -7c-47 0 -91 22 -119 61l-30 43c-17 -60 -73 -104 -138 -104c-40 0 -76 16 -102 42s-42 62 -42 102v408c0 63 40 119 100 138
c15 4 29 6 44 6c46 0 90 -22 118 -61z" />
    <glyph glyph-name="o" unicode="o" 
d="M723 481c17 -42 25 -88 25 -133v-1c0 -45 -8 -91 -26 -133c-8 -21 -19 -41 -32 -60s-28 -37 -44 -53c-15 -15 -32 -29 -50 -42c-18 -12 -37 -23 -58 -32c-20 -9 -41 -15 -63 -20c-21 -5 -43 -7 -65 -8h-4h-11h-5c-43 1 -87 10 -128 28c-20 9 -40 20 -58 32
c-18 13 -35 27 -51 42c-16 16 -30 34 -43 53s-24 39 -33 60c-17 42 -26 88 -26 133v1c0 45 9 91 26 133c9 21 20 41 32 60c13 19 27 36 43 53l3 2c28 28 62 53 101 70c36 16 75 26 115 29c12 1 21 1 26 1h3h5c4 0 12 0 24 -1c40 -3 79 -13 115 -29c39 -18 73 -42 101 -70
l3 -2c31 -33 57 -71 75 -113z" />
    <glyph glyph-name="p" unicode="p" horiz-adv-x="665" 
d="M614 451c1 -31 -5 -64 -18 -95c-13 -30 -31 -56 -52 -77c-22 -22 -48 -41 -77 -54s-60 -19 -90 -20h-5h-30v-61c0 -80 -64 -144 -144 -144s-144 64 -144 144v204v1v203c0 38 15 75 42 102s64 43 102 43h178l10 -1c57 -4 115 -29 156 -71c23 -23 42 -50 54 -81
c13 -30 19 -63 18 -93z" />
    <glyph glyph-name="q" unicode="q" 
d="M727 224c56 -57 55 -148 -1 -204c-28 -28 -65 -42 -102 -42s-74 14 -102 43c-38 -14 -78 -21 -118 -21v0h-4c-43 0 -88 7 -129 24c-42 16 -80 41 -112 72l-2 2l-7 6l-2 3c-31 32 -56 70 -72 111c-17 41 -25 86 -25 130c0 45 8 91 26 133c18 43 44 80 75 112l1 1
c32 32 70 58 112 76s88 27 134 27c41 0 83 -7 123 -22c39 -14 75 -36 105 -63c9 -8 14 -13 18 -16v-1l6 -6c4 -4 10 -9 16 -18c26 -29 46 -64 60 -101c14 -39 21 -81 21 -122c0 -42 -7 -84 -22 -123z" />
    <glyph glyph-name="r" unicode="r" horiz-adv-x="669" 
d="M616 451c0 -31 -6 -64 -19 -95c-11 -27 -28 -52 -47 -72l39 -57c46 -65 31 -155 -34 -201c-26 -18 -55 -26 -83 -26c-46 0 -90 21 -118 61l-21 29c-21 -53 -73 -90 -134 -90c-79 0 -144 64 -144 144v205v203c0 38 16 75 42 102c27 27 64 43 102 43h178l11 -1
c56 -4 114 -29 156 -71c22 -23 41 -50 53 -81c13 -30 19 -63 19 -93z" />
    <glyph glyph-name="s" unicode="s" horiz-adv-x="670" 
d="M575 377c27 -35 46 -84 45 -134c0 -23 -3 -45 -10 -66c-6 -20 -14 -38 -24 -55c-13 -24 -31 -45 -51 -62c-21 -17 -43 -29 -65 -37c-22 -9 -44 -14 -65 -18c-22 -3 -44 -5 -66 -5h-1h-6c-22 0 -43 1 -63 4c-21 3 -42 7 -63 13c-41 13 -81 35 -115 66
c-57 55 -60 146 -5 204c9 10 19 19 31 25c-7 8 -14 16 -20 25c-24 32 -36 75 -36 113v2c0 25 4 46 9 65c6 20 13 37 21 53c12 23 28 44 46 61c19 18 39 31 60 40c21 10 41 16 61 21c20 4 40 6 59 7c9 1 18 1 28 1h1c70 0 140 -19 198 -57c42 -28 66 -74 66 -121
c0 -27 -8 -55 -24 -79c-10 -15 -22 -27 -35 -37c9 -9 17 -18 24 -29z" />
    <glyph glyph-name="t" unicode="t" horiz-adv-x="680" 
d="M480 697c80 0 145 -65 145 -145c0 -79 -65 -144 -145 -144v-264c0 -80 -64 -144 -144 -144s-144 64 -144 144v264c-79 1 -143 65 -143 144c0 80 64 145 144 145h143h144z" />
    <glyph glyph-name="u" unicode="u" horiz-adv-x="689" 
d="M358 0h-14h-1h-2c-4 0 -13 0 -25 2c-29 2 -60 9 -90 23c-36 15 -64 38 -86 59c-26 26 -47 57 -61 90c-15 34 -23 70 -24 105v7v266c0 80 64 145 144 145c38 0 72 -15 98 -39s43 -57 45 -94c3 37 20 70 46 94s60 39 98 39c40 0 76 -17 102 -43s42 -62 42 -102v-266v-4
c0 -35 -7 -72 -22 -106c-14 -35 -36 -66 -62 -92c-25 -25 -54 -45 -85 -59c-29 -13 -59 -20 -87 -23c-7 -1 -12 -1 -16 -2z" />
    <glyph glyph-name="v" unicode="v" horiz-adv-x="663" 
d="M618 552c0 -15 -3 -32 -8 -47l-143 -409c-21 -58 -75 -96 -136 -96h-1c-62 0 -116 38 -136 96l-144 409c-26 75 13 157 89 183c15 6 31 9 47 9c60 0 116 -38 136 -97l8 -22l8 22c26 75 108 115 184 88c59 -20 96 -76 96 -136z" />
    <glyph glyph-name="w" unicode="w" horiz-adv-x="851" 
d="M832 552c0 -14 -2 -29 -7 -44l-131 -408c-19 -60 -75 -100 -137 -100h-1c-57 0 -108 33 -131 84c-12 -25 -31 -46 -53 -61c-23 -15 -50 -23 -79 -23v0c-63 0 -118 40 -138 100l-131 408c-25 76 17 157 93 182c14 4 29 7 44 7c56 0 108 -33 132 -86c11 26 30 47 52 62
c23 15 50 23 79 24c29 0 56 -9 79 -24s42 -37 53 -63c23 54 76 87 132 87c15 0 30 -3 44 -7c61 -20 100 -77 100 -138z" />
    <glyph glyph-name="x" unicode="x" horiz-adv-x="665" 
d="M592 226c46 -65 30 -155 -35 -201c-26 -18 -55 -26 -83 -26c-45 0 -90 21 -118 61l-26 37l-25 -36c-28 -40 -73 -61 -118 -61c-29 0 -58 8 -83 26c-65 46 -81 136 -35 201l85 121l-85 120c-46 66 -30 155 35 201s155 30 201 -35l26 -36l25 36c46 65 136 81 201 35
s81 -135 35 -201l-85 -120z" />
    <glyph glyph-name="y" unicode="y" horiz-adv-x="663" 
d="M556 670c65 -46 81 -135 35 -201l-117 -166v-159c0 -80 -65 -144 -144 -144c-80 0 -145 64 -145 144v159l-117 166c-45 66 -30 155 35 201s155 30 201 -35l26 -36l25 36c46 65 136 81 201 35z" />
    <glyph glyph-name="z" unicode="z" horiz-adv-x="669" 
d="M603 618c11 -21 16 -44 16 -67c0 -29 -9 -58 -26 -83l-127 -180h9c40 0 76 -16 102 -42s42 -62 42 -102s-16 -76 -42 -102s-62 -42 -102 -42h-288c-53 0 -103 30 -128 78c-11 21 -16 43 -16 66c0 29 9 58 27 83l127 180h-10c-79 0 -144 65 -144 144c0 40 16 76 42 102
s63 43 102 43h288c54 0 103 -31 128 -78z" />
    <glyph glyph-name="bracketleft" unicode="[" horiz-adv-x="400" 
d="M238 0h-72c-38 0 -76 16 -103 43v0c-26 27 -42 64 -42 102v0v409c0 38 16 75 42 102v0c27 27 65 43 103 43v0h72c80 0 144 -65 144 -145v0c0 -53 -29 -100 -72 -125v0v-159c43 -25 72 -72 72 -125v0c0 -80 -64 -145 -144 -145v0z" />
    <glyph glyph-name="bracketright" unicode="]" horiz-adv-x="400" 
d="M234 0h-72c-80 0 -144 65 -144 145v0c0 53 29 100 72 125v0v159c-43 25 -72 72 -72 125v0c0 80 64 144 144 144v0h72c38 0 76 -15 103 -42v0c27 -27 42 -64 42 -102v0v-409c0 -38 -15 -75 -42 -102v0c-27 -27 -65 -43 -103 -43v0z" />
    <glyph glyph-name="underscore" unicode="_" horiz-adv-x="687" 
d="M179 0c-80 0 -144 65 -144 145v0c0 80 64 144 144 144v0h324c80 0 145 -64 145 -144v0c0 -80 -65 -145 -145 -145v0h-324v0z" />
    <glyph glyph-name="asciicircum" unicode="^" horiz-adv-x="585" 
d="M108 330c-66 44 -85 134 -41 200v0l102 155c27 40 73 65 121 65v0c48 0 94 -25 121 -65v0l102 -155c44 -66 25 -156 -41 -200v0c-59 -38 -134 -29 -182 18v0c-27 -27 -65 -42 -102 -42v0c-28 0 -55 8 -80 24v0z" />
    <glyph glyph-name="a" unicode="a" 
d="M746 125v0c-3 -20 -10 -39 -20 -55c-11 -18 -25 -34 -44 -46c-14 -10 -31 -17 -48 -21c-11 -2 -21 -3 -31 -3h-3h-404c-50 0 -96 26 -122 68c-15 23 -22 50 -22 76c0 22 5 44 15 64l203 408c24 49 74 80 129 81c27 0 53 -8 76 -22c22 -14 41 -34 53 -58l202 -406
c6 -11 10 -23 13 -35c3 -10 4 -21 4 -32c0 -6 0 -12 -1 -18v-1z" />
  </font>
</defs>
</svg>
